<svg width="126" height="83" fill="none" xmlns="http://www.w3.org/2000/svg"><path d="M26.025 67.477h9.89v1.84h-3.89v10.35h-2.14v-10.35h-3.88v-1.84h.02zm9.47 3.37h1.82v1.71c.07-.252.185-.49.34-.7.166-.237.368-.447.6-.62a3 3 0 01.78-.46 2.36 2.36 0 01.87-.17h.54c.086.01.173.01.26 0v1.88l-.42-.07h-.43a2.26 2.26 0 00-1.69.77 3.14 3.14 0 00-.52.94 4.049 4.049 0 00-.2 1.31v4.23h-2v-8.8l.05-.02zm14.15 8.82h-1.93v-1.24a2.67 2.67 0 01-1.08 1.08 2.89 2.89 0 01-1.45.4 3.21 3.21 0 01-2.52-.86 3.79 3.79 0 01-.78-2.61v-5.59h2v5.43a2.3 2.3 0 00.46 1.64 1.58 1.58 0 001.25.49c.343.008.684-.057 1-.19.26-.116.489-.29.67-.51a1.93 1.93 0 00.37-.76 3.74 3.74 0 00.12-1v-5.1h1.95v8.82h-.06zm3.32-2.84a1.57 1.57 0 00.65 1.21 2.57 2.57 0 001.36.34c.203.018.407.018.61 0 .226-.026.447-.08.66-.16a1.15 1.15 0 00.5-.36.81.81 0 00.18-.6.88.88 0 00-.28-.62 2.29 2.29 0 00-.65-.39 5.924 5.924 0 00-.91-.25c-.34-.06-.69-.14-1-.22-.31-.08-.72-.18-1.06-.3a3 3 0 01-.92-.47 2.088 2.088 0 01-.63-.75 2.379 2.379 0 01-.25-1.12 2 2 0 01.36-1.21c.233-.328.542-.596.9-.78a4.003 4.003 0 011.21-.43c.412-.074.83-.11 1.25-.11a5.39 5.39 0 011.3.15 3.15 3.15 0 011.13.47c.34.213.626.504.83.85.237.377.381.806.42 1.25h-2a1.242 1.242 0 00-.64-.94 2.54 2.54 0 00-1.16-.25h-.49c-.18.033-.356.076-.53.13a1.451 1.451 0 00-.43.28.68.68 0 00-.18.47.71.71 0 00.25.57c.193.163.413.292.65.38.295.109.6.189.91.24l1.06.23c.338.082.672.182 1 .3.33.1.638.259.91.47a2.07 2.07 0 01.89 1.82 2.44 2.44 0 01-.35 1.34 3.19 3.19 0 01-.93.9 4.868 4.868 0 01-1.27.5 6.736 6.736 0 01-1.39.16 5.877 5.877 0 01-1.55-.19 4.158 4.158 0 01-1.24-.57 2.69 2.69 0 01-.81-1 3.14 3.14 0 01-.33-1.37h2l-.03.03zm6.44-6h1.48v-2.65h2v2.65h1.76v1.45h-1.8v4.73c-.011.18-.011.36 0 .54.019.128.056.253.11.37a.7.7 0 00.28.23c.167.059.343.086.52.08h.41l.41-.07v1.51c-.21 0-.43 0-.64.06-.21.015-.42.015-.63 0a4.137 4.137 0 01-1.24-.14 1.83 1.83 0 01-.74-.43 1.41 1.41 0 01-.35-.7 5.349 5.349 0 01-.12-1v-5.16h-1.41v-1.48l-.04.01zm6.57 0h1.84v1.21a2.4 2.4 0 011.14-1.11 3.672 3.672 0 011.6-.34 4.001 4.001 0 011.82.37c.507.22.95.564 1.29 1 .352.445.613.955.77 1.5a6.529 6.529 0 01.03 3.55 4.759 4.759 0 01-.7 1.49 3.529 3.529 0 01-2.89 1.39 4.773 4.773 0 01-.84-.08 3.859 3.859 0 01-.82-.24 2.998 2.998 0 01-.71-.44 2.518 2.518 0 01-.56-.62v4.42h-2v-12.08l.03-.02zm6.83 4.43a3.73 3.73 0 00-.17-1.15 3.002 3.002 0 00-.47-1 2.571 2.571 0 00-.77-.7 2.06 2.06 0 00-1.06-.26 2.15 2.15 0 00-1.85.85 3.83 3.83 0 00-.62 2.28c-.006.419.047.837.16 1.24.093.363.26.704.49 1 .212.268.478.49.78.65a2.24 2.24 0 001.06.24 2.27 2.27 0 001.13-.27 2.58 2.58 0 00.76-.71 3 3 0 00.43-1c.083-.381.126-.77.13-1.16v-.01zm3.43-7.8h2v1.84h-2v-1.84zm0 3.37h2v8.84h-2v-8.84zm3.7-3.37h2v12.21h-2v-12.21zm7.93 12.46a4.768 4.768 0 01-1.9-.35 4.38 4.38 0 01-1.4-1 4.088 4.088 0 01-.86-1.48 5.687 5.687 0 01-.26-1.82 5.34 5.34 0 01.31-1.86 4.27 4.27 0 01.86-1.48c.389-.43.866-.772 1.4-1a5.152 5.152 0 011.9-.35 4.752 4.752 0 011.89.35 3.93 3.93 0 012.26 2.45c.208.598.313 1.227.31 1.86a5.36 5.36 0 01-.31 1.87 4.611 4.611 0 01-.86 1.48 3.998 3.998 0 01-1.4 1 5.088 5.088 0 01-1.89.35l-.05-.02zm0-1.54a2.24 2.24 0 001.9-1 3.1 3.1 0 00.46-1c.2-.743.2-1.526 0-2.27a3.001 3.001 0 00-.46-1 2.37 2.37 0 00-.78-.7 2.3 2.3 0 00-1.12-.28 2.25 2.25 0 00-1.13.28 2.4 2.4 0 00-.78.7 3 3 0 00-.46 1 4.67 4.67 0 000 2.27c.09.359.246.698.46 1 .204.294.47.54.78.72a2.2 2.2 0 001.13.28zm5.05-7.55h1.53v-2.65h2v2.65h1.76v1.45h-1.76v4.73c-.011.18-.011.36 0 .54.014.129.051.254.11.37a.7.7 0 00.28.23c.167.059.343.086.52.08h.41l.41-.07v1.51l-.64.06c-.21.015-.42.015-.63 0a4.137 4.137 0 01-1.24-.14 1.83 1.83 0 01-.74-.43 1.51 1.51 0 01-.36-.7c-.063-.33-.1-.664-.11-1v-5.16h-1.48v-1.48l-.06.01z" fill="#C1C1C1"/><path d="M23.745 67.479h-9l-2.7-8.51-2.77 8.51H.325l7.23 5.26-2.77 8.51 7.24-5.26 7.24 5.26-2.76-8.51 7.24-5.26z" fill="#00B67A"/><path d="M17.125 74.668l-.62-1.93-4.46 3.23 5.08-1.3z" fill="#005128"/><path d="M23.625 24H0v23.625h23.625V24zm25.592 0H25.592v23.625h23.625V24zm25.599 0H51.19v23.625h23.625V24zm25.592 0H76.783v23.625h23.625V24z" fill="#00B67A"/><path d="M126 24h-23.625v23.625H126V24z" fill="#DCDCE6"/><path d="M114.222 24H102.39v23.625h11.832V24z" fill="#00B67A"/><path d="M11.778 39.91l3.596-.914 1.536 4.61-5.132-3.696zm8.298-5.97h-6.323l-1.975-5.954-1.944 5.955H3.542l5.117 3.664-1.944 5.955 5.117-3.65 3.15-2.305 5.094-3.695v.03zM37.4 39.912l3.573-.899 1.536 4.61-5.109-3.711zm8.275-5.985h-6.331L37.4 27.973l-1.944 5.954h-6.323l5.117 3.68-1.944 5.954 5.125-3.65 3.15-2.304 5.094-3.695v.015zM63 39.912l3.588-.914 1.537 4.61L63 39.911zm8.267-5.985h-6.323L63 27.973l-1.944 5.954h-6.33l5.124 3.68-1.974 5.985 5.147-3.68 3.15-2.305 5.094-3.695v.015zm17.34 5.983l3.596-.914 1.536 4.61-5.132-3.696zm8.267-5.985h-6.323l-1.944-5.939-1.944 5.955H80.34l5.102 3.664-1.944 5.955 5.11-3.65 3.15-2.258 5.093-3.696.023-.03zm17.31 5.987l3.618-.899 1.499 4.61-5.117-3.711zm8.267-5.985h-6.323l-1.944-5.954-1.944 5.954h-6.323l5.117 3.68-1.944 5.954 5.117-3.65 3.15-2.258 5.094-3.695v-.031z" fill="#fff"/><path d="M7.314 8.258H1.821v5.086h6.146v1.537H0V.752h7.63v1.537H1.82v4.463h5.494v1.506zm3.787-3.516l1.452 2.174c.377.569.692 1.091 1.022 1.66h.062c.338-.615.676-1.137 1.006-1.683l1.43-2.15h1.989l-3.457 4.9 3.557 5.233h-2.09l-1.49-2.305a18.46 18.46 0 01-1.091-1.76c-.338.608-.692 1.153-1.068 1.76l-1.468 2.305H8.881l3.603-5.17L9.05 4.741h2.05zm15.758 9.757a6.7 6.7 0 01-2.912.591c-3.073 0-5.048-2.074-5.048-5.178a5.155 5.155 0 015.447-5.378c.88-.007 1.752.17 2.559.522l-.423 1.43A4.233 4.233 0 0024.346 6c-2.304 0-3.58 1.721-3.58 3.842 0 2.35 1.537 3.795 3.519 3.795a5.217 5.217 0 002.259-.507l.315 1.368zm3.065-4.356c0 2.497 1.63 3.52 3.473 3.52a6.708 6.708 0 002.812-.523l.315 1.321a8.244 8.244 0 01-3.373.63c-3.127 0-4.986-2.059-4.986-5.117s1.798-5.462 4.756-5.462c3.311 0 4.187 2.912 4.187 4.77a6.695 6.695 0 01-.061.861h-7.123zm5.379-1.321c0-1.168-.477-2.996-2.551-2.996-1.867 0-2.682 1.72-2.828 2.996h5.379zM39.375 0h1.844v14.874h-1.844V0zm4.963 0h1.844v14.874h-1.844V0zm5.977 10.143c.039 2.497 1.63 3.52 3.473 3.52a6.707 6.707 0 002.812-.523l.307 1.321a8.214 8.214 0 01-3.372.63c-3.12 0-4.987-2.059-4.987-5.117s1.806-5.462 4.756-5.462c3.311 0 4.195 2.912 4.195 4.77a8.508 8.508 0 01-.062.861h-7.122zm5.379-1.321c0-1.168-.485-2.996-2.559-2.996-1.86 0-2.681 1.72-2.827 2.996h5.386zm4.086-1.339c0-1.053 0-1.906-.084-2.743h1.636l.108 1.675h.038a3.726 3.726 0 013.358-1.906c1.398 0 3.58.838 3.58 4.31v6.055h-1.844v-5.84c0-1.636-.607-2.996-2.343-2.996a2.72 2.72 0 00-2.574 2.743v6.093H59.81l-.03-7.391zm13.768-5.655V4.74h2.643v1.398h-2.643v5.47c0 1.26.361 1.967 1.383 1.967.36.006.719-.036 1.068-.123l.085 1.383c-.526.185-1.08.27-1.637.254a2.58 2.58 0 01-1.99-.768 3.765 3.765 0 01-.706-2.643V6.146h-1.537V4.74h1.537V2.304l1.797-.476z" fill="#C1C1C1"/></svg>