<svg width="23" height="23" fill="none" xmlns="http://www.w3.org/2000/svg"><g clip-path="url(#clip0)"><path d="M8.496 20.274c-.94 0-1.906-.076-2.879-.229-1.712-.268-3.446-1.164-3.937-1.433L.393 17.91l1.393-.458c1.523-.501 2.45-.812 3.597-1.298-1.149-.556-2.034-1.557-2.46-2.85L2.6 12.32l.266.04a4.836 4.836 0 01-.605-.746c-.55-.833-.84-1.851-.778-2.724l.061-.859.514.2a4.807 4.807 0 01-.465-1.306 4.968 4.968 0 01.529-3.345l.448-.822.599.72c1.894 2.275 4.294 3.625 7.142 4.02-.117-.802-.03-1.575.26-2.269.335-.808.932-1.492 1.727-1.98a5.189 5.189 0 013.01-.74 4.81 4.81 0 012.958 1.22c.396-.104.687-.214 1.082-.362.237-.09.506-.19.843-.307l1.24-.427-.808 2.31c.053-.004.108-.008.165-.01l1.325-.06-.783 1.07c-.045.062-.056.079-.072.103-.063.095-.142.213-1.217 1.649-.269.36-.403.827-.378 1.318.095 1.865-.134 3.553-.68 5.016a8.874 8.874 0 01-2.383 3.529c-1.316 1.185-2.994 1.997-4.988 2.411-.978.204-2.028.306-3.115.306z" fill="#D9C28F"/></g><defs><clipPath id="clip0"><path fill="#fff" transform="translate(.394 .504)" d="M0 0h21.719v21.719H0z"/></clipPath></defs></svg>