<svg width="26" height="15" fill="none" xmlns="http://www.w3.org/2000/svg"><path fill-rule="evenodd" clip-rule="evenodd" d="M14.275 14.937s.47-.052.71-.313c.22-.24.212-.691.212-.691s-.03-2.108.939-2.419c.953-.306 2.178 2.038 3.477 2.94.982.681 1.727.532 1.727.532l3.473-.049s1.816-.113.955-1.557c-.07-.118-.502-1.069-2.581-3.02-2.178-2.044-1.886-1.714.736-5.249 1.597-2.153 2.236-3.467 2.036-4.029-.19-.537-1.364-.395-1.364-.395l-3.91.025s-.29-.04-.504.09c-.21.127-.346.424-.346.424s-.618 1.666-1.444 3.083c-1.74 2.988-2.436 3.146-2.72 2.961-.663-.433-.498-1.738-.498-2.666 0-2.897.435-4.104-.846-4.417-.425-.104-.737-.172-1.825-.184C11.107-.01 9.927.008 9.258.34c-.445.22-.788.711-.578.74.258.034.843.159 1.153.586.4.551.387 1.788.387 1.788s.23 3.41-.538 3.834c-.527.29-1.249-.302-2.802-3.014a25.345 25.345 0 01-1.395-2.925s-.115-.286-.323-.44c-.25-.187-.6-.245-.6-.245L.848.687S.289.703.085.948c-.182.218-.014.67-.014.67s2.908 6.88 6.202 10.349c3.02 3.179 6.448 2.97 6.448 2.97h1.554z" fill="#D9C28F"/></svg>