<svg width="325" height="29" fill="none" xmlns="http://www.w3.org/2000/svg"><path d="M26.7 8.51h9.89v1.84H32.7V20.7h-2.14V10.35h-3.88V8.51h.02zm9.47 3.37h1.82v1.71c.07-.253.185-.49.34-.7a2.71 2.71 0 01.6-.62c.235-.193.498-.348.78-.46a2.32 2.32 0 01.87-.17h.54c.086.01.174.01.26 0v1.88l-.42-.07h-.43a2.26 2.26 0 00-1.69.77c-.226.28-.402.598-.52.94a4.051 4.051 0 00-.2 1.31v4.23h-2v-8.8l.05-.02zm14.15 8.82h-1.93v-1.24a2.67 2.67 0 01-1.08 1.08c-.44.258-.94.396-1.45.4a3.21 3.21 0 01-2.52-.86 3.79 3.79 0 01-.78-2.61v-5.59h2v5.43a2.3 2.3 0 00.46 1.64 1.581 1.581 0 001.25.49c.343.007.684-.058 1-.19.26-.117.489-.291.67-.51a1.93 1.93 0 00.37-.76 3.74 3.74 0 00.12-1v-5.1h1.95v8.82h-.06zm3.32-2.84a1.57 1.57 0 00.65 1.21 2.59 2.59 0 001.36.34c.203.017.407.017.61 0 .226-.027.447-.08.66-.16a1.15 1.15 0 00.5-.36.81.81 0 00.18-.6.881.881 0 00-.28-.62 2.287 2.287 0 00-.65-.39 5.898 5.898 0 00-.91-.25c-.34-.06-.69-.14-1-.22-.31-.08-.72-.18-1.06-.3a3.003 3.003 0 01-.92-.47 2.092 2.092 0 01-.63-.75 2.381 2.381 0 01-.25-1.12 2 2 0 01.36-1.21 2.51 2.51 0 01.9-.78 4 4 0 011.21-.43c.413-.075.83-.112 1.25-.11.438-.004.874.047 1.3.15.404.08.788.24 1.13.47.34.212.626.503.83.85.237.377.381.805.42 1.25h-2a1.238 1.238 0 00-.64-.94 2.538 2.538 0 00-1.16-.25h-.49c-.18.032-.356.075-.53.13a1.45 1.45 0 00-.43.28.68.68 0 00-.18.47.711.711 0 00.25.57c.193.163.413.291.65.38.295.108.6.188.91.24l1.06.23a9.26 9.26 0 011 .3c.33.099.638.258.91.47a2.069 2.069 0 01.89 1.82 2.44 2.44 0 01-.35 1.34 3.19 3.19 0 01-.93.9 4.874 4.874 0 01-1.27.5 6.742 6.742 0 01-1.39.16 5.886 5.886 0 01-1.55-.19 4.164 4.164 0 01-1.24-.57 2.69 2.69 0 01-.81-1 3.142 3.142 0 01-.33-1.37h2l-.03.03zm6.44-6h1.48V9.21h2v2.65h1.76v1.45h-1.8v4.73c-.012.18-.012.36 0 .54.019.127.056.252.11.37a.7.7 0 00.28.23c.167.058.343.085.52.08h.41l.41-.07v1.51c-.21 0-.43 0-.64.06a4.73 4.73 0 01-.63 0 4.143 4.143 0 01-1.24-.14 1.83 1.83 0 01-.74-.43 1.41 1.41 0 01-.35-.7 5.36 5.36 0 01-.12-1v-5.16h-1.41v-1.48l-.04.01zm6.57 0h1.84v1.21a2.4 2.4 0 011.14-1.11 3.67 3.67 0 011.6-.34 3.998 3.998 0 011.82.37c.507.22.95.563 1.29 1 .352.444.614.954.77 1.5a6.54 6.54 0 01.03 3.55 4.76 4.76 0 01-.7 1.49c-.316.418-.723.76-1.19 1a3.53 3.53 0 01-1.7.39 4.792 4.792 0 01-.84-.08 3.866 3.866 0 01-.82-.24 3.005 3.005 0 01-.71-.44 2.524 2.524 0 01-.56-.62v4.42h-2V11.88l.03-.02zm6.83 4.43a3.727 3.727 0 00-.17-1.15 2.998 2.998 0 00-.47-1 2.569 2.569 0 00-.77-.7 2.048 2.048 0 00-1.06-.26 2.15 2.15 0 00-1.85.85 3.83 3.83 0 00-.62 2.28c-.006.418.048.836.16 1.24.093.363.26.703.49 1 .212.268.478.489.78.65a2.24 2.24 0 001.06.24 2.27 2.27 0 001.13-.27 2.6 2.6 0 00.76-.71c.203-.305.349-.644.43-1a5.73 5.73 0 00.13-1.16v-.01zm3.43-7.8h2v1.84h-2V8.49zm0 3.37h2v8.84h-2v-8.84zm3.7-3.37h2V20.7h-2V8.49zm7.93 12.46a4.772 4.772 0 01-1.9-.35 4.381 4.381 0 01-1.4-1 4.092 4.092 0 01-.86-1.48 5.694 5.694 0 01-.26-1.82 5.341 5.341 0 01.31-1.86 4.27 4.27 0 01.86-1.48 4 4 0 011.4-1 5.148 5.148 0 011.9-.35 4.748 4.748 0 011.89.35 3.929 3.929 0 012.26 2.45c.208.597.313 1.226.31 1.86a5.36 5.36 0 01-.31 1.87 4.609 4.609 0 01-.86 1.48c-.389.43-.866.771-1.4 1a5.091 5.091 0 01-1.89.35l-.05-.02zm0-1.54a2.24 2.24 0 001.9-1c.212-.304.368-.643.46-1 .2-.744.2-1.527 0-2.27a2.998 2.998 0 00-.46-1 2.369 2.369 0 00-.78-.7 2.3 2.3 0 00-1.12-.28 2.249 2.249 0 00-1.13.28 2.4 2.4 0 00-.78.7 3 3 0 00-.46 1 4.67 4.67 0 000 2.27c.09.358.246.697.46 1 .204.294.47.54.78.72a2.2 2.2 0 001.13.28zm5.05-7.55h1.53V9.21h2v2.65h1.76v1.45h-1.76v4.73c-.011.18-.011.36 0 .54.014.128.051.254.11.37a.7.7 0 00.28.23c.167.058.343.085.52.08h.41l.41-.07v1.51l-.64.06a4.73 4.73 0 01-.63 0 4.143 4.143 0 01-1.24-.14 1.83 1.83 0 01-.74-.43 1.51 1.51 0 01-.36-.7 6.51 6.51 0 01-.11-1v-5.16h-1.48v-1.48l-.06.01z" fill="#C1C1C1"/><path d="M24.42 8.51h-9L12.72 0 9.95 8.51H1l7.23 5.26-2.77 8.51 7.24-5.26 7.24 5.26-2.76-8.51 7.24-5.26z" fill="#00B67A"/><path d="M17.8 15.7l-.62-1.93L12.72 17l5.08-1.3z" fill="#005128"/><path d="M133.688 5H114v19.688h19.688V5zm21.326 0h-19.687v19.688h19.687V5zm21.333 0h-19.688v19.688h19.688V5zm21.326 0h-19.687v19.688h19.687V5z" fill="#00B67A"/><path d="M219 5h-19.688v19.688H219V5z" fill="#DCDCE6"/><path d="M209.185 5h-9.86v19.688h9.86V5z" fill="#00B67A"/><path d="M123.815 18.26l2.996-.762 1.281 3.841-4.277-3.08zm6.915-4.975h-5.269l-1.646-4.962-1.62 4.962h-5.243l4.264 3.054-1.62 4.962 4.264-3.041 2.625-1.92 4.245-3.08v.025zm14.437 4.974l2.977-.75 1.281 3.842-4.258-3.092zm6.896-4.988h-5.276l-1.62-4.961-1.62 4.961h-5.269l4.264 3.067-1.62 4.962 4.271-3.041 2.625-1.92 4.245-3.08v.012zm14.437 4.988l2.99-.762 1.28 3.841-4.27-3.079zm6.889-4.988h-5.269L166.5 8.31l-1.62 4.961h-5.276l4.271 3.067-1.646 4.988 4.29-3.067 2.625-1.92 4.245-3.08v.012zm14.45 4.989l2.997-.762 1.28 3.841-4.277-3.08zm6.889-4.988h-5.269l-1.62-4.949-1.619 4.962h-5.27l4.252 3.054-1.62 4.962 4.257-3.041 2.625-1.883 4.245-3.08.019-.025zm14.425 4.987l3.016-.75 1.248 3.842-4.264-3.092zm6.889-4.988h-5.269l-1.62-4.961-1.62 4.961h-5.269l4.264 3.067-1.62 4.962 4.264-3.041 2.625-1.882 4.245-3.08v-.026z" fill="#fff"/><path d="M237.095 14.287h-4.578v4.239h5.122v1.28H231V8.032h6.358v1.28h-4.841v3.72h4.578v1.255zm3.156-2.933l1.21 1.812c.314.474.577.91.852 1.383h.051c.282-.512.564-.947.839-1.402l1.191-1.793h1.658l-2.881 4.085 2.964 4.36h-1.741l-1.242-1.92c-.333-.487-.641-.96-.909-1.467-.282.506-.577.96-.89 1.467l-1.223 1.92h-1.729l3.003-4.308-2.862-4.136h1.709zm13.132 8.132a5.584 5.584 0 01-2.427.493c-2.561 0-4.206-1.729-4.206-4.315a4.286 4.286 0 011.273-3.25 4.297 4.297 0 013.266-1.232 5.228 5.228 0 012.132.435l-.352 1.191a3.525 3.525 0 00-1.78-.403c-1.92 0-2.983 1.434-2.983 3.201 0 1.96 1.28 3.163 2.932 3.163a4.347 4.347 0 001.882-.423l.263 1.14zm2.554-3.63c0 2.08 1.358 2.932 2.894 2.932a5.592 5.592 0 002.344-.435l.262 1.101a6.87 6.87 0 01-2.811.525c-2.605 0-4.155-1.716-4.155-4.264s1.498-4.552 3.963-4.552c2.76 0 3.49 2.427 3.49 3.976a5.55 5.55 0 01-.052.717h-5.935zm4.482-1.101c0-.973-.397-2.497-2.126-2.497-1.555 0-2.234 1.434-2.356 2.497h4.482zm3.393-7.351h1.537V19.8h-1.537V7.404zm4.136 0h1.537V19.8h-1.537V7.404zm4.982 8.452c.032 2.08 1.357 2.932 2.893 2.932a5.592 5.592 0 002.344-.435l.256 1.101c-.89.371-1.847.55-2.811.525-2.599 0-4.155-1.716-4.155-4.264s1.505-4.552 3.963-4.552c2.76 0 3.496 2.427 3.496 3.976-.005.24-.022.48-.051.717h-5.935zm4.481-1.101c0-.973-.403-2.497-2.132-2.497-1.549 0-2.234 1.434-2.356 2.497h4.488zm3.406-1.115c0-.877 0-1.588-.07-2.286h1.364l.089 1.396h.032a3.107 3.107 0 012.798-1.588c1.165 0 2.984.698 2.984 3.592V19.8h-1.537v-4.866c0-1.363-.506-2.496-1.953-2.496a2.267 2.267 0 00-2.145 2.285V19.8h-1.536l-.026-6.159zm11.473-4.712v2.426h2.203v1.166h-2.203v4.558c0 1.05.301 1.64 1.153 1.64.3.003.599-.031.89-.103l.07 1.152c-.437.154-.9.226-1.364.211a2.15 2.15 0 01-1.658-.64 3.14 3.14 0 01-.589-2.202v-4.61h-1.28v-1.172h1.28v-2.03l1.498-.396z" fill="#C1C1C1"/></svg>